<?xml version="1.0" encoding="UTF-8"?>
<svg id="cart" xmlns="http://www.w3.org/2000/svg" viewBox="0 0 102.5 150">
  <defs>
    <style>
      .cls-1 {
        stroke-width: 0px;
      }
    </style>
  </defs>
  <path class="cls-1" d="m97.9,31.36h-19.53v-2.83c0-15.73-12.32-28.52-27.46-28.52s-27.45,12.79-27.45,28.52v2.83H4.59c-2.53,0-4.59,2.03-4.59,4.54v109.57c0,2.5,2.06,4.54,4.59,4.54h93.31c2.53,0,4.6-2.04,4.6-4.54V35.89c0-2.5-2.06-4.54-4.6-4.54Zm-67.51-2.83c0-11.75,9.2-21.31,20.52-21.31s20.52,9.56,20.52,21.31v2.83H30.4v-2.83Zm65.03,114.5H7.07V38.33h16.39v20.99h6.94v-20.99h41.03v20.99h6.94v-20.99h17.06v104.69Z"/>
</svg>