<?xml version="1.0" encoding="UTF-8"?>
<svg id="instagram" xmlns="http://www.w3.org/2000/svg" viewBox="0 0 150 150">
  <defs>
    <style>
      .cls-1 {
        fill: #fff;
      }
    </style>
  </defs>
  <path class="cls-1" d="m92.24,40.07c-37.79-1.71-43.34.39-47.63,4.68-3.47,3.47-4.47,7.97-4.69,12.89-.23,5.02-1.07,36.06,1.48,42.59,1.47,3.79,4.34,6.65,8.15,8.13,1.52.59,3.79,1.29,7.98,1.47,38.02,1.74,46.96.36,50.85-9.6.59-1.51,1.29-3.78,1.48-7.96,1.74-37.64-.4-43.23-4.69-47.52-3.48-3.46-7.99-4.46-12.92-4.68Zm-17.36,56.88c-12.18,0-22.06-9.85-22.06-22s9.88-22,22.06-22,22.06,9.85,22.06,22-9.88,22-22.06,22Zm22.93-39.73c-2.85,0-5.15-2.31-5.15-5.14s2.31-5.14,5.15-5.14,5.16,2.31,5.16,5.14-2.31,5.14-5.16,5.14Z"/>
  <path class="cls-1" d="m0,0v150h150V0H0Zm117.57,92.61c-.2,4.56-.93,7.68-1.99,10.4-5.98,15.31-20.16,16.25-58.41,14.52-4.57-.21-7.69-.93-10.43-1.99-5.85-2.27-10.3-6.73-12.56-12.53-3.35-8.6-2.2-41.39-2-45.73.32-6.95,2.01-13.07,6.95-17.99,4.92-4.9,11.01-6.61,18.04-6.93,41.95-1.93,48.17,1.66,53.45,6.93,6.67,6.66,8.7,14.97,6.95,53.32Z"/>
  <path class="cls-1" d="m74.88,60.67c-7.91,0-14.32,6.4-14.32,14.28s6.41,14.29,14.32,14.29,14.32-6.4,14.32-14.29-6.41-14.28-14.32-14.28Z"/>
</svg>