<?xml version="1.0" encoding="UTF-8"?>
<svg id="pinterest" xmlns="http://www.w3.org/2000/svg" viewBox="0 0 150 150">
  <defs>
    <style>
      .cls-1 {
        fill: #fff;
      }
    </style>
  </defs>
  <path class="cls-1" d="m0,0v150h150V0H0Zm109.56,65.92c-.7,6.57-2.17,12.86-5.63,18.55-4.18,6.87-10,11.47-18.12,12.76-3.94.62-7.83.41-11.33-1.67-1.8-1.07-3.36-2.56-5.1-3.92-1.05,4.17-2.18,8.54-3.26,12.91-1.03,4.16-2.89,7.94-5.1,11.57-.89,1.47-2.29,2.12-3.52,1.79-1.54-.41-2.74-2.18-2.81-4.21-.16-4.45.25-8.84,1.29-13.18,2.04-8.51,3.99-17.05,5.93-25.59.15-.66.05-1.45-.15-2.1-1.55-4.89-1.86-9.77.29-14.55,1.53-3.42,3.91-5.99,7.94-6.24,3.96-.25,6.7,2.13,7.22,6.07.39,2.92-.28,5.72-1.05,8.49-1.01,3.65-2.05,7.3-3.11,10.95-.96,3.31-.53,6.32,2.07,8.72,2.71,2.49,5.94,2.72,9.3,1.62,3.09-1.02,5.32-3.18,7.11-5.82,3.14-4.62,4.73-9.84,5.2-15.32.31-3.61.5-7.36-.13-10.89-1.29-7.23-5.76-12.1-12.85-14.08-9.26-2.58-17.99-1.34-25.22,5.38-6.65,6.18-9.09,14.04-7.32,22.98.4,2.01,1.65,3.91,2.77,5.7.71,1.13,1.06,2.12.68,3.4-.33,1.12-.57,2.26-.86,3.39-.5,1.91-1.43,2.34-3.24,1.47-4.05-1.93-6.73-5.16-8.13-9.33-3.97-11.77-1.42-22.31,6.67-31.49,6.3-7.15,14.56-10.52,23.92-11.4,6.72-.63,13.22.17,19.37,3.1,11.98,5.71,18.6,17.75,17.19,30.95Z"/>
</svg>