<?xml version="1.0" encoding="utf-8"?>
<!-- Generator: Adobe Illustrator 27.9.0, SVG Export Plug-In . SVG Version: 6.00 Build 0)  -->
<svg version="1.1" id="cart" xmlns="http://www.w3.org/2000/svg" xmlns:xlink="http://www.w3.org/1999/xlink" x="0px" y="0px"
	 viewBox="0 0 102.5 150" style="enable-background:new 0 0 102.5 150;" xml:space="preserve">
<path d="M97.2,31l-18.5,0V29c0-16-12.5-29-27.8-29C35.6,0,23.1,13,23.1,29V31H5.3C2.4,31,0,33.4,0,36.3v108.5c0,2.9,2.4,5.2,5.3,5.2
	h92c2.9,0,5.3-2.3,5.3-5.2V36.3C102.5,33.4,100.1,31,97.2,31z M31.4,31v-2.7c0.3-10.9,8.9-19.7,19.5-19.7c10.7,0,19.5,9.1,19.5,20.4
	V31H31.4z M31.4,60.2V39.4h39v20.8h8.3V39.4h15.3v102.2H8.4V39.4h14.7v20.8H31.4z"/>
</svg>
