<?xml version="1.0" encoding="UTF-8"?>
<svg id="logo" xmlns="http://www.w3.org/2000/svg" viewBox="0 0 150 150">
  <defs>
    <style>
      .cls-2 {
        fill: #fff;
      }
    </style>
  </defs>
  <rect class="cls-1" width="150" height="150"/>
  <path class="cls-2" d="m31.41,115.28v-1.26l2.25-.76c1.66-.59,2.79-1.38,3.37-2.39.58-1.01.87-2.35.87-4.03.08-5.04.12-10.12.12-15.24v-35.57c0-5.08-.04-10.14-.12-15.17,0-1.68-.23-3.02-.69-4.03s-1.48-1.8-3.06-2.39l-2.75-1.01v-1.26h60.41l.87,20.9h-1.25l-7.11-13.22c-.83-1.59-1.79-2.85-2.87-3.78-1.08-.92-2.58-1.38-4.49-1.38h-20.1c-.08,5.96-.12,12.05-.12,18.26v18.51h12.98c1.91,0,3.33-.42,4.24-1.26.91-.84,1.79-2.06,2.62-3.65l2.62-4.79h1.25v22.04h-1.25l-2.75-4.79c-.83-1.51-1.69-2.73-2.56-3.65-.87-.92-2.27-1.39-4.18-1.39h-12.98v16.81c0,5.33.04,10.56.12,15.68,0,3.27,1.58,5.42,4.74,6.42l3.74,1.13v1.26H31.41Zm74.26,1.89c-3,0-5.53-1.05-7.61-3.15s-3.12-4.62-3.12-7.56,1.04-5.5,3.12-7.68,4.62-3.27,7.61-3.27,5.53,1.09,7.61,3.27,3.12,4.74,3.12,7.68-1.04,5.46-3.12,7.56-4.62,3.15-7.61,3.15Z"/>
</svg>