<?xml version="1.0" encoding="utf-8"?>
<!-- Generator: Adobe Illustrator 27.9.0, SVG Export Plug-In . SVG Version: 6.00 Build 0)  -->
<svg version="1.1" id="search" xmlns="http://www.w3.org/2000/svg" xmlns:xlink="http://www.w3.org/1999/xlink" x="0px" y="0px"
	 viewBox="0 0 150 150" style="enable-background:new 0 0 150 150;" xml:space="preserve">
<path d="M16.6,150l38.5-38.5c10,6.8,21.9,10.4,34,10.4c33.6,0,60.9-27.3,60.9-60.9S122.7,0,89.1,0S28.1,27.3,28.1,60.9
	c0,12.1,3.6,23.9,10.4,34L0,133.4L16.6,150z M46.9,60.9c0-23.3,18.9-42.2,42.2-42.2c23.3,0,42.2,18.9,42.2,42.2
	c0,23.3-18.9,42.2-42.2,42.2C65.8,103.1,46.9,84.2,46.9,60.9z"/>
</svg>
